<svg width="26" height="30" viewBox="0 0 26 30" fill="none" xmlns="http://www.w3.org/2000/svg">
<path fill-rule="evenodd" clip-rule="evenodd" d="M13.0006 0.666748C10.2391 0.666748 8.00055 2.90533 8.00055 5.66675V7.34223C4.97467 7.50124 2.4635 9.79496 2.05886 12.8297L0.814419 22.163C0.308188 25.9598 3.26187 29.3334 7.0922 29.3334H18.9089C22.7392 29.3334 25.6929 25.9598 25.1867 22.163L23.9422 12.8297C23.5376 9.79496 21.0264 7.50124 18.0006 7.34223V5.66675C18.0006 2.90532 15.762 0.666748 13.0006 0.666748ZM16.0006 9.33342V12.3334C16.0006 12.8857 16.4483 13.3334 17.0006 13.3334C17.5528 13.3334 18.0006 12.8857 18.0006 12.3334V9.34632C20.0232 9.50219 21.6877 11.0532 21.9598 13.094L23.2042 22.4274C23.5506 25.0251 21.5297 27.3334 18.9089 27.3334H7.0922C4.47144 27.3334 2.45051 25.0251 2.79687 22.4274L4.04132 13.094C4.31343 11.0532 5.97787 9.50219 8.00055 9.34632V12.3334C8.00055 12.8857 8.44827 13.3334 9.00055 13.3334C9.55284 13.3334 10.0006 12.8857 10.0006 12.3334V9.33342H16.0006ZM16.0006 7.33342V5.66675C16.0006 4.00989 14.6574 2.66675 13.0006 2.66675C11.3437 2.66675 10.0006 4.0099 10.0006 5.66675V7.33342H16.0006Z" fill="#017CF8"/>
</svg>
