<svg name="home" width="30" height="29" viewBox="0 0 30 29" fill="none" xmlns="http://www.w3.org/2000/svg">
<path fill-rule="evenodd" clip-rule="evenodd" d="M14.0452 3.22291C14.6191 2.8212 15.3829 2.8212 15.9568 3.22291L26.3769 10.517C26.905 10.8867 27.1726 11.5278 27.064 12.1632L24.7647 25.614C24.6279 26.4145 23.934 26.9999 23.1219 26.9999H20.001V21.3332C20.001 19.3082 18.3594 17.6666 16.3343 17.6666H13.6677C11.6426 17.6666 10.001 19.3082 10.001 21.3332V26.9999H6.88013C6.06802 26.9999 5.37413 26.4145 5.23729 25.614L2.93801 12.1632C2.82939 11.5278 3.09696 10.8867 3.62508 10.517L14.0452 3.22291ZM12.001 26.9999H18.001V21.3332C18.001 20.4127 17.2548 19.6666 16.3343 19.6666H13.6677C12.7472 19.6666 12.001 20.4127 12.001 21.3332V26.9999ZM11.001 28.9999H6.88013C5.09348 28.9999 3.56693 27.7121 3.26589 25.951L0.966604 12.5002C0.727637 11.1023 1.31629 9.69185 2.47815 8.87855L12.8983 1.58445C14.1608 0.700692 15.8412 0.700692 17.1037 1.58445L27.5238 8.87855C28.6857 9.69185 29.2744 11.1023 29.0354 12.5002L26.7361 25.951C26.4351 27.7121 24.9085 28.9999 23.1219 28.9999H19.001H11.001Z" fill="#3A2C67"/>
</svg>
