<svg width="24" height="24" viewBox="0 0 24 24" fill="none" xmlns="http://www.w3.org/2000/svg">
<path fill-rule="evenodd" clip-rule="evenodd" d="M9 1C4.58172 1 1 4.58172 1 9V16C1 16.5523 1.44772 17 2 17C2.55228 17 3 16.5523 3 16V9C3 5.68629 5.68629 3 9 3H16C16.5523 3 17 2.55228 17 2C17 1.44772 16.5523 1 16 1H9ZM10 5C7.23858 5 5 7.23858 5 10V18C5 20.7614 7.23858 23 10 23H18C20.7614 23 23 20.7614 23 18V10C23 7.23858 20.7614 5 18 5H10ZM7 10C7 8.34315 8.34315 7 10 7H18C19.6569 7 21 8.34315 21 10V18C21 19.6569 19.6569 21 18 21H10C8.34315 21 7 19.6569 7 18V10Z" fill="white"/>
</svg>
