<svg width="24" height="24" viewBox="0 0 24 24" fill="none" xmlns="http://www.w3.org/2000/svg">
<path fill-rule="evenodd" clip-rule="evenodd" d="M11.2425 2.97013C11.7783 2.83619 12.1041 2.29325 11.9701 1.75746C11.8362 1.22166 11.2933 0.895901 10.7575 1.02985L5.78732 2.27239C3.56149 2.82884 2 4.82876 2 7.1231V16.8769C2 19.1712 3.56148 21.1711 5.78732 21.7276L10.7575 22.9701C11.2933 23.1041 11.8362 22.7783 11.9701 22.2425C12.1041 21.7067 11.7783 21.1638 11.2425 21.0299L6.27239 19.7873C4.93689 19.4534 4 18.2535 4 16.8769V7.1231C4 5.7465 4.93689 4.54655 6.27239 4.21267L11.2425 2.97013ZM15.8034 5.2983C15.4159 4.90481 14.7827 4.89998 14.3892 5.28751C13.9957 5.67504 13.9909 6.30819 14.3784 6.70168L18.6116 11H9C8.44772 11 8 11.4477 8 12C8 12.5523 8.44772 13 9 13H18.6116L14.3784 17.2983C13.9909 17.6918 13.9957 18.3249 14.3892 18.7125C14.7827 19.1 15.4159 19.0952 15.8034 18.7017L21.7125 12.7017C22.0958 12.3124 22.0958 11.6876 21.7125 11.2983L15.8034 5.2983Z" fill="#75787E"/>
</svg>
