<svg width="24" height="24" viewBox="0 0 24 24" fill="none" xmlns="http://www.w3.org/2000/svg">
<path fill-rule="evenodd" clip-rule="evenodd" d="M11.4266 2.62208C11.7709 2.38106 12.2292 2.38106 12.5735 2.62208L20.3886 8.09266C20.7055 8.31447 20.866 8.69913 20.8008 9.08039L19.0764 19.1685C18.9943 19.6488 18.5779 20 18.0907 20H16V16C16 14.3431 14.6569 13 13 13H11C9.34317 13 8.00002 14.3431 8.00002 16V20H5.90938C5.42211 20 5.00577 19.6488 4.92367 19.1685L3.19921 9.08039C3.13404 8.69913 3.29458 8.31447 3.61145 8.09266L11.4266 2.62208ZM10 20H14V16C14 15.4477 13.5523 15 13 15H11C10.4477 15 10 15.4477 10 16V20ZM9.00002 22H5.90938C4.44757 22 3.19858 20.9464 2.95227 19.5055L1.2278 9.41738C1.03228 8.2736 1.51391 7.11963 2.46452 6.4542L10.2796 0.983619C11.3126 0.260547 12.6874 0.260546 13.7204 0.983619L21.5355 6.4542C22.4861 7.11963 22.9678 8.2736 22.7722 9.41738L21.0478 19.5055C20.8015 20.9464 19.5525 22 18.0907 22H15H9.00002Z" fill="#75787E"/>
</svg>
