<svg width="20" height="22" viewBox="0 0 20 22" fill="none" xmlns="http://www.w3.org/2000/svg">
<path fill-rule="evenodd" clip-rule="evenodd" d="M5.99986 6C5.99986 3.79086 7.79072 2 9.99986 2C12.209 2 13.9999 3.79086 13.9999 6C13.9999 8.20914 12.209 10 9.99986 10C7.79072 10 5.99986 8.20914 5.99986 6ZM9.99986 0C6.68615 0 3.99986 2.68629 3.99986 6C3.99986 9.31371 6.68615 12 9.99986 12C13.3136 12 15.9999 9.31371 15.9999 6C15.9999 2.68629 13.3136 0 9.99986 0ZM7.82362 14C5.25467 14 2.89212 15.4072 1.66858 17.666L0.120656 20.5237C-0.142388 21.0093 0.0380449 21.6162 0.523664 21.8793C1.00928 22.1423 1.6162 21.9619 1.87924 21.4763L3.42716 18.6186C4.30112 17.0051 5.98866 16 7.82362 16H12.1763C14.0112 16 15.6988 17.0051 16.5727 18.6186L18.1207 21.4763C18.3837 21.9619 18.9906 22.1423 19.4762 21.8793C19.9618 21.6162 20.1423 21.0093 19.8792 20.5237L18.3313 17.666C17.1078 15.4072 14.7452 14 12.1763 14H7.82362Z" fill="#75787E"/>
</svg>
