<svg width="24" height="24" viewBox="0 0 24 24" fill="none" xmlns="http://www.w3.org/2000/svg">
<path fill-rule="evenodd" clip-rule="evenodd" d="M7.00025 5.03626C5.4452 5.27947 4.30763 6.71295 4.48745 8.33129L5.59856 18.3313C5.76737 19.8506 7.05156 21 8.58021 21H15.4199C16.9485 21 18.2327 19.8506 18.4015 18.3313L19.5126 8.33129C19.6924 6.71295 18.5549 5.27946 16.9998 5.03626C16.9804 6.6764 15.6448 8 14 8H12H10C8.44674 8 7.16916 6.8195 7.01553 5.30673C7.00648 5.21767 7.00133 5.12745 7.00025 5.03626ZM16.8325 3.00889C19.6656 3.1765 21.8183 5.69099 21.5004 8.55216L20.3893 18.5522C20.1079 21.0843 17.9676 23 15.4199 23H8.58021C6.03246 23 3.89214 21.0843 3.61079 18.5522L2.49968 8.55216C2.18177 5.69099 4.33451 3.17651 7.16762 3.00889C7.57693 1.83906 8.6905 1 10 1H14C15.3096 1 16.4231 1.83906 16.8325 3.00889ZM9.00004 4V5C9.00004 5.55228 9.44775 6 10 6H12H14C14.5523 6 15 5.55228 15 5V4C15 3.44772 14.5523 3 14 3H10C9.44775 3 9.00004 3.44772 9.00004 4ZM8.00004 16C8.00004 15.4477 8.44775 15 9.00004 15H15C15.5523 15 16 15.4477 16 16C16 16.5523 15.5523 17 15 17H9.00004C8.44775 17 8.00004 16.5523 8.00004 16ZM9.00004 11C8.44775 11 8.00004 11.4477 8.00004 12C8.00004 12.5523 8.44775 13 9.00004 13H15C15.5523 13 16 12.5523 16 12C16 11.4477 15.5523 11 15 11H9.00004Z" fill="#75787E"/>
</svg>
