<svg width="24" height="24" viewBox="0 0 24 24" fill="#75787E" xmlns="http://www.w3.org/2000/svg">
<path fill-rule="evenodd" clip-rule="evenodd" d="M5.12057 7.87931C4.72708 8.26685 4.72224 8.89999 5.10977 9.29349C5.49731 9.68698 6.13045 9.69181 6.52395 9.30428L10.8223 5.0711V14.6827C10.8223 15.235 11.27 15.6827 11.8223 15.6827C12.3745 15.6827 12.8223 15.235 12.8223 14.6827V5.0711L17.1206 9.30428C17.5141 9.69181 18.1472 9.68698 18.5347 9.29349C18.9223 8.89999 18.9174 8.26685 18.5239 7.87931L12.5239 1.97023C12.1347 1.58687 11.5098 1.58687 11.1206 1.97023L5.12057 7.87931ZM2.79191 12.4402C2.65796 11.9044 2.11503 11.5786 1.57923 11.7126C1.04344 11.8465 0.717678 12.3894 0.851627 12.9252L2.09416 17.8954C2.65062 20.1212 4.65054 21.6827 6.94488 21.6827H16.6987C18.993 21.6827 20.9929 20.1212 21.5494 17.8954L22.7919 12.9252C22.9259 12.3894 22.6001 11.8465 22.0643 11.7126C21.5285 11.5786 20.9856 11.9044 20.8516 12.4402L19.6091 17.4103C19.2752 18.7458 18.0753 19.6827 16.6987 19.6827H6.94488C5.56827 19.6827 4.36832 18.7458 4.03445 17.4103L2.79191 12.4402Z" fill="#75787E"/>
</svg>
