<svg xmlns="http://www.w3.org/2000/svg" width="163" height="29.25" viewBox="0 0 163 29.25">
  <g id="Group_9" data-name="Group 9" transform="translate(-45 -63)">
    <g id="Icon_ionic-ios-tennisball" data-name="Icon ionic-ios-tennisball" transform="translate(41.625 59.625)">
      <path id="Path_1" data-name="Path 1" d="M17.606,32.625a13.4,13.4,0,0,0,.112-1.68,12.735,12.735,0,0,0-3.705-9.021,12.692,12.692,0,0,0-9.028-3.642,13.561,13.561,0,0,0-1.61.1A14.683,14.683,0,0,0,17.606,32.625Z" fill="#0d6efd"/>
      <path id="Path_2" data-name="Path 2" d="M16.172,5.2a15.523,15.523,0,0,1,.1-1.723A14.791,14.791,0,0,0,3.459,16.467c.506-.049,1.013-.077,1.533-.077A14.513,14.513,0,0,1,19.554,30.945a13.445,13.445,0,0,1-.091,1.6A14.7,14.7,0,0,0,32.527,19.723a15.194,15.194,0,0,1-1.793.042A14.515,14.515,0,0,1,16.172,5.2Z" fill="#0d6efd"/>
      <path id="Path_3" data-name="Path 3" d="M21.705,14.224a12.735,12.735,0,0,0,9.021,3.705,13.119,13.119,0,0,0,1.9-.141A14.758,14.758,0,0,0,18.134,3.375,13.086,13.086,0,0,0,18,5.2,12.735,12.735,0,0,0,21.705,14.224Z" fill="#0d6efd"/>
      <path id="Path_4" data-name="Path 4" d="M16.313,3.466Z" fill="#3f51b5"/>
    </g>
    <text id="BocciaTracker" transform="translate(79 85)" fill="#000" font-size="20" font-family="SegoeUI-Bold, Segoe UI" font-weight="700"><tspan x="0" y="0">BocciaTracker</tspan></text>
  </g>
</svg>
